<svg width="15" height="15" viewBox="0 0 15 15" fill="none" xmlns="http://www.w3.org/2000/svg">
<path d="M7.5 0C3.35625 0 0 3.44339 0 7.69042C0 11.0889 2.14875 13.9709 5.12813 14.9867C5.50313 15.0591 5.64062 14.8214 5.64062 14.6169C5.64062 14.4343 5.63438 13.9504 5.63125 13.3096C3.545 13.7735 3.105 12.2778 3.105 12.2778C2.76375 11.3902 2.27062 11.153 2.27062 11.153C1.59125 10.6762 2.32312 10.6858 2.32312 10.6858C3.07625 10.7397 3.47187 11.478 3.47187 11.478C4.14062 12.654 5.2275 12.3143 5.65625 12.1175C5.72375 11.6202 5.91688 11.2812 6.13125 11.0889C4.46563 10.8967 2.715 10.2353 2.715 7.2886C2.715 6.44906 3.00563 5.76333 3.48688 5.225C3.4025 5.03082 3.14937 4.24896 3.5525 3.1896C3.5525 3.1896 4.18062 2.98324 5.615 3.97787C6.215 3.80676 6.8525 3.72216 7.49 3.71832C8.1275 3.72216 8.765 3.80676 9.365 3.97787C10.79 2.98324 11.4181 3.1896 11.4181 3.1896C11.8212 4.24896 11.5681 5.03082 11.4931 5.225C11.9712 5.76333 12.2619 6.44906 12.2619 7.2886C12.2619 10.243 10.5087 10.8935 8.84 11.0825C9.1025 11.3133 9.34625 11.7849 9.34625 12.5053C9.34625 13.5345 9.33687 14.3612 9.33687 14.6112C9.33687 14.813 9.46813 15.0534 9.8525 14.9765C12.8531 13.9677 15 11.0838 15 7.69042C15 3.44339 11.6419 0 7.5 0Z" fill="#2C2C2C"/>
</svg>
