<svg width="75" height="11" viewBox="0 0 75 11" fill="none" xmlns="http://www.w3.org/2000/svg">
<path d="M75 5.63112L71.9804 1.95865V0H75V5.63112Z" fill="#961203"/>
<path d="M64.7987 0V1.46899L72.4701 10.7726H75V9.38519L67.3286 0H64.7987Z" fill="#961203"/>
<path d="M64.7987 5.14153V10.7726H67.8183V8.814L64.8803 5.14153H64.7987Z" fill="#961203"/>
<path d="M58.6779 10.6093V10.8542H61.5343L61.6975 10.7726L61.8607 10.6093V10.2013L60.4733 7.83459H60.3101L58.6779 10.6093Z" fill="#961203"/>
<path d="M55.6583 10.6093V10.8541H57.8618L57.9434 10.7725L59.9837 7.26327V7.01844L58.9227 5.30462H58.8411L55.6583 10.6093Z" fill="#961203"/>
<path d="M52.6387 10.6094V10.8543H54.8422L58.5147 4.73347V4.48864L57.4537 2.77482H57.2905L52.6387 10.6094Z" fill="#961203"/>
<path d="M49.4559 10.6909L49.5375 10.7725L49.7007 10.8541H51.8226L51.9042 10.7725L56.8008 2.44824L56.9641 2.20341V1.95857L56.8825 1.79535L56.0663 0.407977L55.9031 0.163146L55.7399 0.0815353H55.5767L55.3319 0.163146L49.3743 10.2012V10.5277L49.4559 10.6909Z" fill="#961203"/>
<path d="M38.2753 10.7726V8.32428H46.8444V10.7726H38.2753Z" fill="#961203"/>
<path d="M38.2753 6.44731V4.16222H46.8444V6.44731H38.2753Z" fill="#961203"/>
<path d="M46.8444 0V2.3667H38.2753V0H46.8444Z" fill="#961203"/>
<path d="M23.5038 5.38628H26.605V8.24265H28.8901L29.543 8.07943L30.1142 7.8346L30.6039 7.50815L30.9303 7.18171L31.3384 6.36561L31.5016 5.95756V4.89662L31.3384 4.40696L31.2568 4.16213L31.0935 3.83569L30.9303 3.59086L30.7671 3.34603L30.6039 3.1828L30.3591 3.01958L30.1142 2.85636L29.7062 2.69314L29.4613 2.61153L28.8901 2.52992L23.5038 2.44831V0H29.6246L30.1142 0.0816104L30.5223 0.163221L31.0935 0.326441L31.6648 0.571273L32.3993 0.979324L32.889 1.30577L33.2154 1.63221L33.6235 2.12187L33.8683 2.44831L34.1131 2.85636L34.2764 3.1828L34.4396 3.67247L34.6028 4.40696V6.284L34.4396 7.01849L34.2764 7.50815L34.1131 7.8346L33.9499 8.16104L33.7051 8.48748L33.4603 8.81392L33.1338 9.14036L32.889 9.38519L32.4809 9.71163L31.9097 10.0381L31.7464 10.1197L31.5832 10.2013L31.42 10.2829L31.1752 10.3645L30.9303 10.4461L30.6855 10.5277L30.3591 10.6093L29.951 10.691L29.2165 10.7726H23.5038V5.38628Z" fill="#961203"/>
<path d="M10.691 2.44831V0H20.321V2.44831H17.0566V10.7726H13.9554V2.44831H10.691Z" fill="#961203"/>
<path d="M1.06094 0V2.3667H4.7334V7.34493L4.65179 7.67138L4.40696 8.07943L4.16213 8.32426L3.75408 8.48748H3.42764H3.1012L2.69314 8.32426L2.3667 8.16104L2.12187 7.99782L1.5506 7.42654L0 9.22197V9.4668L0.571273 10.0381L0.979325 10.3645L1.30577 10.5277L1.46899 10.6093L1.71382 10.691L1.95865 10.7726L2.28509 10.8542L2.69314 10.9358H3.83569L4.89663 10.8542L5.38629 10.691L5.79434 10.5277L6.20239 10.2829L6.52883 10.0381L6.77367 9.79325L7.0185 9.54841L7.18172 9.30358L7.26333 9.14036L7.34494 8.97714L7.42655 8.73231L7.50816 8.48748L7.58977 8.24265L7.67138 7.8346L7.75299 7.00927V0H1.06094Z" fill="#961203"/>
</svg>
