<svg width="15" height="9" viewBox="0 0 15 9" fill="none" xmlns="http://www.w3.org/2000/svg">
<path d="M8.46252 4.5C8.46584 5.62609 8.02211 6.70747 7.22878 7.50667C6.43544 8.30586 5.35736 8.75754 4.23127 8.7625C3.10518 8.75754 2.0271 8.30586 1.23376 7.50667C0.440424 6.70747 -0.00330446 5.62609 1.85302e-05 4.5C-0.00330446 3.37391 0.440424 2.29253 1.23376 1.49333C2.0271 0.694136 3.10518 0.242462 4.23127 0.237499C5.35736 0.242462 6.43544 0.694136 7.22878 1.49333C8.02211 2.29253 8.46584 3.37391 8.46252 4.5ZM13.1 4.5C13.1 6.7125 12.1563 8.5125 10.9875 8.5125C9.81877 8.5125 8.86877 6.7125 8.86877 4.5C8.86877 2.2875 9.81877 0.487499 10.9875 0.487499C12.1563 0.487499 13.1 2.2875 13.1 4.5ZM15 4.5C15 6.48125 14.6688 8.09375 14.2563 8.09375C13.8438 8.09375 13.5125 6.48125 13.5125 4.5C13.5125 2.51875 13.8438 0.906249 14.2563 0.906249C14.6688 0.906249 15 2.51875 15 4.5Z" fill="#2C2C2C"/>
</svg>
