<svg width="15" height="15" viewBox="0 0 15 15" fill="none" xmlns="http://www.w3.org/2000/svg">
<path d="M14.9706 1.78672C14.409 2.09093 13.8141 2.29173 13.205 2.38267C13.8463 1.90841 14.3265 1.16465 14.5569 0.288754C13.9625 0.715534 13.3038 1.0262 12.6025 1.19922C12.1398 0.590522 11.5268 0.186804 10.8585 0.0507573C10.1903 -0.0852895 9.50419 0.0539478 8.90684 0.446848C8.30948 0.839747 7.83429 1.46432 7.55503 2.22359C7.27578 2.98285 7.2081 3.83432 7.3625 4.64576C4.80625 4.49735 2.54188 2.98631 1.025 0.704C0.749246 1.28059 0.605415 1.93822 0.60875 2.60721C0.60875 3.92216 1.1525 5.07792 1.97625 5.75693C1.48804 5.73781 1.01061 5.5754 0.58375 5.28324V5.32938C0.583473 6.20323 0.828918 7.0503 1.27844 7.72685C1.72797 8.40341 2.35388 8.86779 3.05 9.04122C2.59894 9.18992 2.12651 9.21226 1.6675 9.10658C1.86508 9.85864 2.24854 10.5161 2.76438 10.9871C3.28023 11.4581 3.90272 11.7193 4.545 11.7342C3.4572 12.7845 2.11405 13.3546 0.73125 13.3529C0.4875 13.3529 0.244375 13.3352 0 13.3013C1.40982 14.412 3.04907 15.0015 4.72312 15C10.3813 15 13.4719 9.23577 13.4719 4.24589C13.4719 4.08441 13.4719 3.92293 13.4625 3.76144C14.0662 3.2269 14.587 2.56324 15 1.80209L14.9706 1.78672Z" fill="#2C2C2C"/>
</svg>
